<svg width="22" height="21" viewBox="0 0 22 21" fill="none" xmlns="http://www.w3.org/2000/svg">
  <rect x="1" y="1" width="20" height="19" rx="2.9" fill="#f4f4f5" stroke="#E5E7EB" stroke-width="0.5"/>
  <path fill-rule="evenodd" clip-rule="evenodd"
    d="M1 4.16668C1 3.32682 1.32418 2.52137 1.90121 1.92751C2.47825 1.33364 3.26087 1.00001 4.07692 1.00001H17.9231C18.7391 1.00001 19.5218 1.33364 20.0988 1.92751C20.6758 2.52137 21 3.32682 21 4.16668V16.8333C21 17.6732 20.6758 18.4787 20.0988 19.0725C19.5218 19.6664 18.7391 20 17.9231 20H4.07692C3.26087 20 2.47825 19.6664 1.90121 19.0725C1.32418 18.4787 1 17.6732 1 16.8333V4.16668ZM5.07179 5.19057C5.21603 5.04231 5.41154 4.95904 5.61538 4.95904C5.81923 4.95904 6.01474 5.04231 6.15897 5.19057L8.46667 7.56557C8.61072 7.714 8.69163 7.91522 8.69163 8.12501C8.69163 8.3348 8.61072 8.53602 8.46667 8.68445L6.15897 11.0595C6.01315 11.1993 5.82029 11.2754 5.621 11.2718C5.42172 11.2682 5.23158 11.1851 5.09064 11.0401C4.94971 10.895 4.86898 10.6993 4.86546 10.4942C4.86195 10.2891 4.93592 10.0906 5.07179 9.94057L6.8359 8.12501L5.07179 6.30945C4.92774 6.16102 4.84683 5.9598 4.84683 5.75001C4.84683 5.54022 4.92774 5.339 5.07179 5.19057ZM9.46154 9.70834C9.25753 9.70834 9.06187 9.79175 8.91761 9.94022C8.77335 10.0887 8.69231 10.29 8.69231 10.5C8.69231 10.71 8.77335 10.9113 8.91761 11.0598C9.06187 11.2083 9.25753 11.2917 9.46154 11.2917H12.5385C12.7425 11.2917 12.9381 11.2083 13.0824 11.0598C13.2266 10.9113 13.3077 10.71 13.3077 10.5C13.3077 10.29 13.2266 10.0887 13.0824 9.94022C12.9381 9.79175 12.7425 9.70834 12.5385 9.70834H9.46154Z"
    fill="#2E2E31"/>
</svg>
