<?xml version="1.0" standalone="no"?>
<!DOCTYPE svg PUBLIC "-//W3C//DTD SVG 20010904//EN"
 "http://www.w3.org/TR/2001/REC-SVG-20010904/DTD/svg10.dtd">
<svg version="1.0" xmlns="http://www.w3.org/2000/svg"
 width="728.000000pt" height="728.000000pt" viewBox="0 0 728.000000 728.000000"
 preserveAspectRatio="xMidYMid meet">
<metadata>
Created by potrace 1.14, written by Peter Selinger 2001-2017
</metadata>
<g transform="translate(0.000000,728.000000) scale(0.100000,-0.100000)"
fill="#000000" stroke="none">
<path d="M1500 5387 c-44 -9 -46 -10 -92 -50 -101 -88 -67 -285 57 -331 11 -4
51 -10 89 -12 39 -3 71 -6 73 -8 2 -2 -121 -255 -273 -562 -153 -308 -278
-561 -279 -564 0 -3 -76 -156 -168 -342 -92 -185 -167 -341 -167 -347 0 -6 -4
-11 -10 -11 -5 0 -10 -4 -10 -9 0 -6 -91 -193 -202 -418 -190 -384 -202 -411
-202 -464 -1 -88 38 -144 123 -181 90 -39 187 -24 244 37 12 14 128 238 256
499 l234 473 809 0 809 0 126 -256 c378 -770 358 -736 449 -761 116 -33 246
27 273 126 23 81 16 107 -78 298 -86 175 -617 1249 -844 1706 -62 124 -112
227 -112 230 0 3 -4 10 -8 17 -20 32 -65 123 -61 123 3 0 -3 12 -14 28 -11 15
-23 37 -27 50 -3 13 -22 50 -41 83 -19 34 -34 63 -34 66 0 3 -57 120 -127 260
-110 222 -132 259 -166 284 -22 16 -56 32 -76 35 -52 10 -502 11 -551 1z m499
-659 c8 -18 70 -145 137 -283 67 -137 160 -329 206 -425 47 -96 122 -250 167
-342 44 -91 81 -170 81 -175 0 -5 -269 -9 -610 -9 -335 0 -610 2 -610 5 0 7
39 93 51 111 5 8 13 24 18 35 5 11 39 82 75 157 36 75 66 141 66 147 0 6 5 11
10 11 6 0 10 5 10 10 0 10 40 94 239 505 59 121 114 235 122 253 7 17 16 32
19 32 3 0 12 -15 19 -32z"/>
<path d="M4199 5384 c-60 -14 -115 -56 -143 -110 -20 -37 -21 -55 -21 -344 1
-276 2 -308 19 -339 23 -43 43 -64 81 -84 101 -53 212 -39 281 35 48 50 54 83
54 274 0 174 0 174 23 175 27 0 1713 0 1744 0 20 -1 21 -4 12 -28 -67 -177
-253 -419 -454 -589 -116 -99 -368 -294 -379 -294 -3 0 -14 -8 -24 -17 -10
-10 -27 -24 -38 -31 -29 -19 -178 -126 -207 -148 -14 -10 -36 -26 -48 -36 -40
-28 -273 -202 -298 -223 -130 -107 -197 -169 -327 -299 -153 -153 -253 -274
-317 -384 -42 -72 -97 -188 -97 -206 0 -6 -5 -17 -12 -24 -7 -7 -9 -12 -5 -12
4 0 3 -8 -2 -19 -23 -42 -52 -216 -54 -314 -1 -89 2 -107 22 -139 36 -59 93
-96 161 -104 44 -6 161 -6 166 -1 3 3 19 1 36 -4 20 -5 36 -5 43 1 7 5 14 7
17 4 3 -3 36 -5 72 -4 36 1 73 1 81 1 8 0 36 0 63 0 26 0 56 0 67 -1 23 -1 23
-1 95 -1 30 0 62 0 70 0 8 0 31 0 50 0 19 1 44 1 55 0 20 0 200 -1 220 -1 6 1
26 1 45 1 19 1 42 1 50 0 8 0 40 0 70 0 30 0 62 0 70 0 8 0 31 0 50 0 19 1 42
1 50 0 8 0 40 0 70 0 30 0 62 0 70 0 8 0 31 0 50 0 19 1 42 1 50 0 8 0 40 0
70 0 30 0 62 0 70 0 8 0 31 0 50 0 19 1 42 1 50 0 8 0 40 0 70 0 30 0 62 0 70
0 8 0 31 0 50 0 19 1 42 1 50 0 26 -1 134 0 165 2 17 0 37 1 45 0 128 -8 195
8 253 59 65 57 68 78 65 422 l-3 306 -31 39 c-88 109 -250 119 -346 21 -46
-47 -51 -71 -54 -258 -1 -96 -2 -178 -3 -182 -1 -3 -427 -5 -948 -5 -942 2
-948 2 -945 22 12 68 144 289 237 398 6 7 31 37 56 67 57 67 178 188 215 215
16 11 36 27 45 36 9 9 47 39 85 68 38 28 84 63 103 78 18 16 41 32 50 37 9 5
18 12 21 16 3 3 27 22 55 40 27 19 56 40 65 47 8 7 92 69 185 137 94 69 175
129 180 133 6 5 48 38 95 73 113 87 120 93 224 186 350 312 518 534 600 790
37 117 47 168 51 279 l4 100 -37 49 c-23 31 -55 59 -86 74 l-50 25 -1154 1
c-818 1 -1168 -2 -1203 -10z"/>
</g>
</svg>
