<?xml version="1.0" standalone="no"?>
<!DOCTYPE svg PUBLIC "-//W3C//DTD SVG 20010904//EN"
 "http://www.w3.org/TR/2001/REC-SVG-20010904/DTD/svg10.dtd">
<svg version="1.0" xmlns="http://www.w3.org/2000/svg"
 width="700.000000pt" height="700.000000pt" viewBox="0 0 700.000000 700.000000"
 preserveAspectRatio="xMidYMid meet">
<metadata>
Created by potrace 1.14, written by Peter Selinger 2001-2017
</metadata>
<g transform="translate(0.000000,700.000000) scale(0.100000,-0.100000)"
fill="#000000" stroke="none">
<path d="M159 6986 c-56 -20 -96 -53 -126 -104 l-28 -47 0 -3336 0 -3336 30
-49 c19 -30 49 -60 79 -79 l49 -30 3337 0 3337 0 49 30 c30 19 60 49 79 79
l30 49 0 3337 0 3337 -30 49 c-19 30 -49 60 -79 79 l-49 30 -3321 2 c-2697 2
-3328 0 -3357 -11z m2629 -2638 c32 -101 1102 -3385 1109 -3405 4 -10 -64 -13
-321 -13 -302 0 -327 1 -333 18 -4 9 -66 222 -138 472 l-131 455 -592 3 -591
2 -19 -62 c-10 -35 -72 -249 -137 -475 l-119 -413 -314 0 -314 0 4 23 c3 12
259 802 569 1754 l564 1733 367 0 367 0 29 -92z m3752 -97 l0 -190 -845 -1295
c-465 -713 -845 -1298 -845 -1301 0 -3 383 -5 850 -5 l850 0 0 -265 0 -265
-1235 0 -1235 0 0 193 0 193 845 1300 845 1299 -770 3 -770 2 0 260 0 260
1155 0 1155 0 0 -189z"/>
<path d="M2361 3923 c-5 -21 -35 -137 -65 -258 -64 -257 -161 -607 -275 -999
-44 -154 -81 -283 -81 -288 0 -4 200 -8 445 -8 245 0 445 1 445 3 0 4 -135
472 -215 747 -32 107 -94 339 -140 514 -45 176 -87 322 -93 324 -6 2 -15 -14
-21 -35z"/>
</g>
</svg>
