<?xml version="1.0" standalone="no"?>
<!DOCTYPE svg PUBLIC "-//W3C//DTD SVG 20010904//EN"
 "http://www.w3.org/TR/2001/REC-SVG-20010904/DTD/svg10.dtd">
<svg version="1.0" xmlns="http://www.w3.org/2000/svg"
 width="700.000000pt" height="700.000000pt" viewBox="0 0 700.000000 700.000000"
 preserveAspectRatio="xMidYMid meet">
<metadata>
Created by potrace 1.14, written by Peter Selinger 2001-2017
</metadata>
<g transform="translate(0.000000,700.000000) scale(0.100000,-0.100000)"
fill="#000000" stroke="none">
<path d="M159 6986 c-56 -20 -96 -53 -126 -104 l-28 -47 0 -3336 0 -3336 30
-49 c19 -30 49 -60 79 -79 l49 -30 3337 0 3337 0 49 30 c30 19 60 49 79 79
l30 49 0 3337 0 3337 -30 49 c-19 30 -49 60 -79 79 l-49 30 -3321 2 c-2697 2
-3328 0 -3357 -11z m2614 -2593 c16 -53 1115 -3426 1124 -3449 4 -12 -41 -14
-323 -12 l-329 3 -136 470 -135 470 -593 0 -593 0 -134 -462 c-73 -255 -135
-467 -139 -473 -4 -6 -116 -10 -316 -10 -301 0 -310 1 -307 19 2 11 257 801
568 1755 l565 1736 367 0 367 0 14 -47z m3767 -142 l0 -189 -845 -1296 c-465
-712 -845 -1297 -845 -1300 0 -3 383 -6 850 -6 l850 0 0 -265 0 -265 -1235 0
-1235 0 0 193 0 193 845 1299 845 1300 -770 3 -770 2 0 260 0 260 1155 0 1155
0 0 -189z"/>
<path d="M2361 3923 c-5 -21 -44 -171 -85 -333 -88 -346 -122 -467 -245 -887
-50 -171 -91 -316 -91 -322 0 -8 130 -11 445 -11 245 0 445 3 445 6 0 4 -41
147 -91 318 -157 534 -170 582 -259 925 -48 184 -92 337 -98 339 -6 2 -15 -14
-21 -35z"/>
</g>
</svg>
