<svg xmlns="http://www.w3.org/2000/svg" version="1.1" xmlns:xlink="http://www.w3.org/1999/xlink" xmlns:svgjs="http://svgjs.com/svgjs" width="300" height="300"><svg width="300" height="300" viewBox="0 0 300 300" fill="none" xmlns="http://www.w3.org/2000/svg">
<rect width="300" height="300" rx="10" fill="#3777E1"></rect>
<path d="M88.2411 179.96L82.9511 198.36H121.361L116.071 179.96C113.618 171.987 111.241 163.783 108.941 155.35C106.794 146.917 104.648 138.56 102.501 130.28H101.581C99.5877 138.713 97.4411 147.147 95.1411 155.58C92.9944 163.86 90.6944 171.987 88.2411 179.96ZM37.8711 260L86.8611 109.58H118.141L167.131 260H139.071L127.341 219.29H76.7411L65.0111 260H37.8711ZM174.66 260V243.9L247.34 132.12H181.33V109.58H280.46V125.68L207.55 237.46H280.92V260H174.66Z" fill="#FFFFFF"></path>
</svg><style>@media (prefers-color-scheme: light) { :root { filter: none; } }
</style></svg>
